Coordinates
version=1
nRows=9
nColumns=36
inDegrees=yes

Units are S.I. units (second, meters, Newtons, ...)
If the header above contains a line with 'inDegrees', this indicates whether rotational values are in degrees (yes) or radians (no).

endheader
time	pelvis_tilt	pelvis_list	pelvis_rotation	pelvis_tx	pelvis_ty	pelvis_tz	hip_flexion_r	hip_adduction_r	hip_rotation_r	knee_angle_r	knee_angle_r_beta	ankle_angle_r	subtalar_angle_r	mtp_angle_r	hip_flexion_l	hip_adduction_l	hip_rotation_l	knee_angle_l	knee_angle_l_beta	ankle_angle_l	subtalar_angle_l	mtp_angle_l	lumbar_extension	lumbar_bending	lumbar_rotation	arm_flex_r	arm_add_r	arm_rot_r	elbow_flex_r	pro_sup_r	arm_flex_l	arm_add_l	arm_rot_l	elbow_flex_l	pro_sup_l
      5.05000000	      6.13084856	      3.34955520	      5.00430942	      0.99769766	      0.92340876	      0.07242995	      8.78245416	     -2.42683505	     -3.44396335	     30.34069778	      0.52954507	     15.28833803	    -23.15746422	     -7.49999987	     11.08425947	     -4.42232058	     -2.37794042	     29.32430224	      0.51180562	     12.55170444	     -3.55618437	     -7.49999987	    -28.64735290	     -1.89229698	     -1.73397057	     12.95893541	     -6.82985420	     21.21686027	     26.17333034	     82.43986660	     21.80908127	    -11.74004066	     52.97512822	     18.23062415	     59.93697025
      5.06666670	      6.62172708	      3.27251748	      4.71546317	      1.00327448	      0.92444678	      0.07185083	      6.34848810	     -2.26263530	     -3.68298916	     27.18467426	      0.47446207	     15.92085984	    -22.65313621	     -7.49999987	      8.74001599	     -4.52197288	     -2.87453536	     26.61263038	      0.46447802	     12.88095220	     -2.40563927	     -7.49999987	    -27.34996781	     -1.88605111	     -1.53345157	     11.40402137	     -6.93451582	     21.39320142	     25.69919609	     80.71108268	     19.06962530	    -11.53952094	     51.92135616	     17.49390172	     58.95560231
      5.08333330	      6.09521816	      3.13431081	      4.48977237	      1.00591300	      0.93303064	      0.07058665	      5.06429063	     -2.03671662	     -3.60838404	     23.86036334	      0.41644190	     16.08384724	    -22.06029438	     -7.49999987	      7.46802129	     -4.44763496	     -2.95594222	     23.71213090	      0.41385476	     12.95873495	     -2.01023320	     -7.49999987	    -24.83384758	     -1.90520253	     -1.41221741	      9.74868319	     -7.14664231	     21.52173582	     25.41015722	     80.72503055	     16.36101225	    -11.50506384	     52.04977711	     16.90129531	     58.75684743
      5.10000000	      7.17198215	      3.24878213	      4.27533014	      1.00689963	      0.94341178	      0.06838361	      1.72282810	     -2.03411665	     -3.95154194	     19.99896232	      0.34904774	     16.32572648	    -20.54047768	     -7.49999987	      4.10167737	     -4.11592687	     -3.08578950	     20.04580380	      0.34986528	     12.72984736	     -1.82682437	     -7.49999987	    -24.54600980	     -1.78402529	     -1.71749653	      8.96280158	     -7.34628668	     21.80692672	     24.61676281	     80.73150225	     14.34521374	    -11.01377735	     51.36486227	     15.39895108	     57.57423949
      5.11666670	      7.67553849	      3.35277670	      4.07761164	      1.00802854	      0.94963548	      0.06924653	     -0.70559210	     -1.99833758	     -4.07877904	     16.49059987	      0.28781526	     16.18184176	    -19.15367576	     -7.49999987	      1.53197832	     -3.71048434	     -2.79938356	     16.60704959	      0.28984769	     12.39739363	     -2.11925610	     -7.49999987	    -23.71360155	     -1.82281546	     -1.80358038	      8.03085127	     -7.58667886	     21.86676542	     24.23702222	     80.69171602	     12.36293165	    -10.80451633	     50.68046525	     14.70242749	     56.50871675
      5.13333330	      8.30117394	      3.46895683	      3.99930160	      1.01023856	      0.94967535	      0.06870405	     -3.11428562	     -1.95533852	     -4.44503472	     13.30823364	      0.23227249	     16.53619646	    -17.10796062	     -7.49999987	     -0.91239730	     -3.30164513	     -2.38965878	     13.63578973	      0.23798943	     12.28083756	     -2.61370182	     -7.49999987	    -23.13390423	     -1.85579161	     -1.97790786	      7.23477299	     -7.79837453	     21.53631717	     24.17259255	     80.51085869	     10.33322535	    -10.66788447	     48.58686938	     14.46239185	     53.87247825
      5.15000000	      9.04622219	      3.57552430	      3.80266118	      1.01215217	      0.94567939	      0.06818529	     -5.38363572	     -1.87131657	     -4.39878017	     10.72472782	      0.18718181	     16.55284171	    -15.91196556	     -7.49999987	     -3.24472930	     -2.89824137	     -1.89676610	     11.03839668	      0.19265637	     12.46153523	     -2.53407053	     -7.49999987	    -22.87759194	     -1.91906029	     -1.85823254	      6.39775994	     -8.15939923	     20.53700864	     24.51438071	     80.53512866	      8.79765765	    -10.50713896	     47.53407074	     14.15572452	     52.70539827
      5.16666670	      9.88698214	      3.66026130	      3.63176964	      1.01310566	      0.95284012	      0.06861062	     -7.65993532	     -1.76156716	     -4.35610703	      8.29597968	      0.14479216	     16.00776833	    -14.99091293	     -7.49999987	     -5.58088970	     -2.53386693	     -1.31347549	      8.49738753	      0.14830739	     12.20268090	     -2.09141456	     -7.49999987	    -22.83931500	     -2.00244949	     -1.83644349	      5.84166781	     -8.36384776	     19.80784765	     24.40280540	     80.51095308	      7.56226988	    -10.33279341	     47.05393435	     13.44872878	     52.39070930
      5.18333330	     10.74147256	      3.62583777	      3.41921964	      1.01058453	      0.94836384	      0.06673280	     -9.55033175	     -1.65671490	     -4.38317492	      6.52378823	      0.11386158	     15.75481063	    -14.07120681	     -7.49999987	     -7.53838668	     -2.27749826	     -0.61006881	      6.38873467	      0.11150445	     11.93590691	     -2.08355444	     -7.49999987	    -23.25738277	     -1.80482734	     -1.69501871	      5.24524482	     -8.60487438	     16.28313493	     25.37829944	     82.86027406	      6.55043261	    -10.08209383	     44.07687951	     13.51720728	     52.46142815
